<mxfile host="app.diagrams.net" modified="2023-10-16T03:04:14.529Z" agent="Mozilla/5.0 (Macintosh; Intel Mac OS X 10_15_7) AppleWebKit/537.36 (KHTML, like Gecko) Chrome/116.0.0.0 Safari/537.36 Edg/116.0.1938.76" version="22.0.4" etag="z7MRNrw_tFUKeBAlPAyA" type="github">
  <diagram name="第 1 页" id="ocIofcMUBV1rS0fsKxsh">
    <mxGraphModel>
      <root>
        <mxCell id="0" />
        <mxCell id="1" parent="0" />
      </root>
    </mxGraphModel>
  </diagram>
</mxfile>
